<svg width="287" height="46" viewBox="0 0 287 46" fill="none" xmlns="http://www.w3.org/2000/svg">
<path d="M13.2498 8.72197L8.83901 35.2905H2.41741L6.8282 8.72197H13.2498ZM39.893 8.72197L35.4822 35.2905H30.0335L22.0292 19.9565H21.8476L19.2919 35.2905H12.8703L17.2811 8.72197H22.8076L30.747 24.03H30.9676L33.4843 8.72197H39.893ZM39.52 35.2905L43.9308 8.72197H62.0669L61.1848 13.9371H49.4702L48.5881 19.3857H59.148L58.2659 24.6138H47.7059L45.9416 35.2905H39.52ZM60.8896 35.2905L65.3004 8.72197H71.722L68.1934 30.0754H79.2463L78.3642 35.2905H60.8896ZM102.173 8.72197H108.581L105.74 25.8592C105.412 27.8397 104.655 29.5651 103.47 31.0354C102.294 32.497 100.793 33.63 98.9684 34.4343C97.1436 35.23 95.1111 35.6278 92.8711 35.6278C90.6225 35.6278 88.7241 35.23 87.176 34.4343C85.6279 33.63 84.5079 32.497 83.816 31.0354C83.1242 29.5651 82.9382 27.8397 83.2582 25.8592L86.0993 8.72197H92.5209L89.7576 25.3014C89.6106 26.2181 89.6798 27.0354 89.9652 27.7533C90.2593 28.4624 90.7349 29.0246 91.3922 29.4397C92.0495 29.8462 92.8538 30.0495 93.8052 30.0495C94.7652 30.0495 95.643 29.8462 96.4387 29.4397C97.2344 29.0246 97.8917 28.4624 98.4106 27.7533C98.9295 27.0354 99.2625 26.2181 99.4095 25.3014L102.173 8.72197ZM108.195 35.2905L112.606 8.72197H131.132L130.249 13.9371H118.146L117.263 19.3857H128.42L127.538 24.6138H116.381L115.499 30.0754H127.603L126.721 35.2905H108.195ZM157.765 8.72197L153.354 35.2905H147.906L139.901 19.9565H139.72L137.164 35.2905H130.742L135.153 8.72197H140.68L148.619 24.03H148.84L151.356 8.72197H157.765ZM184.298 18.3479H177.889C177.924 17.6733 177.859 17.0722 177.695 16.5446C177.53 16.0084 177.271 15.5501 176.916 15.1695C176.562 14.7803 176.121 14.4863 175.593 14.2874C175.065 14.0884 174.451 13.989 173.751 13.989C172.41 13.989 171.195 14.322 170.105 14.9879C169.016 15.6538 168.103 16.6138 167.368 17.8679C166.633 19.1219 166.118 20.6268 165.824 22.3825C165.556 24.0776 165.561 25.4916 165.837 26.6246C166.123 27.7576 166.65 28.6095 167.42 29.1803C168.19 29.7424 169.167 30.0235 170.352 30.0235C171.122 30.0235 171.835 29.9327 172.492 29.7511C173.158 29.5608 173.759 29.2884 174.296 28.9338C174.832 28.5792 175.295 28.1511 175.684 27.6495C176.082 27.1392 176.389 26.5727 176.605 25.95H183.065C182.745 27.1176 182.218 28.2808 181.483 29.4397C180.756 30.59 179.839 31.6322 178.732 32.5662C177.625 33.5003 176.341 34.2484 174.879 34.8105C173.418 35.3727 171.792 35.6538 170.002 35.6538C167.554 35.6538 165.444 35.1046 163.671 34.0062C161.907 32.9078 160.631 31.3165 159.844 29.2322C159.065 27.1392 158.918 24.6052 159.403 21.63C159.878 18.75 160.817 16.3241 162.218 14.3522C163.628 12.3803 165.34 10.8885 167.355 9.87656C169.379 8.86468 171.537 8.35873 173.829 8.35873C175.489 8.35873 176.981 8.5836 178.304 9.03332C179.636 9.4744 180.765 10.123 181.69 10.9793C182.616 11.8268 183.303 12.869 183.753 14.1057C184.211 15.3425 184.393 16.7565 184.298 18.3479ZM185.183 35.2905L189.594 8.72197H208.119L207.237 13.9371H195.133L194.251 19.3857H205.408L204.526 24.6138H193.369L192.487 30.0754H204.591L203.709 35.2905H185.183ZM207.73 35.2905L212.141 8.72197H218.563L216.798 19.3857H227.267L229.032 8.72197H235.44L231.03 35.2905H224.621L226.385 24.6138H215.916L214.152 35.2905H207.73ZM255.542 8.72197H261.951L259.109 25.8592C258.781 27.8397 258.024 29.5651 256.839 31.0354C255.663 32.497 254.162 33.63 252.338 34.4343C250.513 35.23 248.48 35.6278 246.24 35.6278C243.992 35.6278 242.093 35.23 240.545 34.4343C238.997 33.63 237.877 32.497 237.185 31.0354C236.493 29.5651 236.307 27.8397 236.627 25.8592L239.468 8.72197H245.89L243.127 25.3014C242.98 26.2181 243.049 27.0354 243.334 27.7533C243.628 28.4624 244.104 29.0246 244.761 29.4397C245.419 29.8462 246.223 30.0495 247.174 30.0495C248.134 30.0495 249.012 29.8462 249.808 29.4397C250.604 29.0246 251.261 28.4624 251.78 27.7533C252.299 27.0354 252.632 26.2181 252.779 25.3014L255.542 8.72197ZM261.565 35.2905L265.975 8.72197H277.054C279.043 8.72197 280.665 9.00305 281.919 9.56521C283.173 10.1274 284.055 10.9144 284.566 11.9263C285.085 12.9382 285.232 14.1101 285.007 15.4419C284.825 16.4452 284.453 17.3446 283.891 18.1403C283.337 18.9273 282.646 19.5846 281.815 20.1122C280.985 20.6311 280.068 20.9944 279.065 21.2019L279.013 21.4614C280.086 21.5046 281.033 21.79 281.854 22.3176C282.685 22.8452 283.299 23.5846 283.696 24.536C284.094 25.4787 284.185 26.5857 283.969 27.857C283.735 29.2841 283.16 30.5597 282.243 31.6841C281.335 32.7997 280.138 33.6819 278.65 34.3305C277.162 34.9705 275.441 35.2905 273.487 35.2905H261.565ZM268.868 30.1143H272.838C274.213 30.1143 275.277 29.8505 276.029 29.323C276.79 28.7868 277.24 28.0516 277.379 27.1176C277.491 26.4343 277.43 25.8462 277.197 25.3533C276.963 24.8516 276.574 24.4668 276.029 24.1987C275.485 23.9219 274.797 23.7835 273.967 23.7835H269.88L268.868 30.1143ZM270.594 19.6452H274.161C274.853 19.6452 275.489 19.5284 276.068 19.2949C276.656 19.0614 277.141 18.7241 277.521 18.283C277.91 17.8419 278.153 17.3101 278.248 16.6873C278.395 15.7965 278.192 15.096 277.638 14.5857C277.085 14.0755 276.276 13.8203 275.212 13.8203H271.554L270.594 19.6452Z" fill="#00A3FF"/>
<path d="M2.06714 42.5554H285.474V45.0462H2.06714V42.5554Z" fill="#00A3FF"/>
<path d="M11.1827 8.43145L6.77187 35H0.350269L4.76106 8.43145H11.1827ZM37.8258 8.43145L33.415 35H27.9664L19.9621 19.666H19.7805L17.2248 35H10.8032L15.214 8.43145H20.7405L28.6799 23.7395H28.9004L31.4172 8.43145H37.8258ZM37.4528 35L41.8636 8.43145H59.9998L59.1176 13.6466H47.4031L46.5209 19.0952H57.0809L56.1987 24.3233H45.6388L43.8744 35H37.4528ZM58.8225 35L63.2333 8.43145H69.6549L66.1263 29.7849H77.1792L76.297 35H58.8225ZM100.106 8.43145H106.514L103.673 25.5687C103.344 27.5492 102.588 29.2746 101.403 30.7449C100.227 32.2065 98.7261 33.3395 96.9013 34.1438C95.0764 34.9395 93.044 35.3373 90.804 35.3373C88.5554 35.3373 86.657 34.9395 85.1089 34.1438C83.5608 33.3395 82.4408 32.2065 81.7489 30.7449C81.057 29.2746 80.8711 27.5492 81.1911 25.5687L84.0321 8.43145H90.4537L87.6905 25.0108C87.5435 25.9276 87.6127 26.7449 87.8981 27.4627C88.1921 28.1719 88.6678 28.7341 89.3251 29.1492C89.9824 29.5557 90.7867 29.7589 91.7381 29.7589C92.6981 29.7589 93.5759 29.5557 94.3716 29.1492C95.1672 28.7341 95.8245 28.1719 96.3434 27.4627C96.8624 26.7449 97.1953 25.9276 97.3424 25.0108L100.106 8.43145ZM106.128 35L110.539 8.43145H129.064L128.182 13.6466H116.079L115.196 19.0952H126.353L125.471 24.3233H114.314L113.432 29.7849H125.536L124.654 35H106.128ZM155.698 8.43145L151.287 35H145.838L137.834 19.666H137.652L135.097 35H128.675L133.086 8.43145H138.612L146.552 23.7395H146.772L149.289 8.43145H155.698ZM182.231 18.0574H175.822C175.857 17.3828 175.792 16.7817 175.627 16.2541C175.463 15.7179 175.204 15.2595 174.849 14.879C174.495 14.4898 174.053 14.1957 173.526 13.9968C172.998 13.7979 172.384 13.6985 171.684 13.6985C170.343 13.6985 169.128 14.0314 168.038 14.6974C166.949 15.3633 166.036 16.3233 165.301 17.5774C164.566 18.8314 164.051 20.3363 163.757 22.0919C163.489 23.7871 163.493 25.2011 163.77 26.3341C164.056 27.4671 164.583 28.3189 165.353 28.8898C166.123 29.4519 167.1 29.733 168.285 29.733C169.055 29.733 169.768 29.6422 170.425 29.4606C171.091 29.2703 171.692 28.9979 172.229 28.6433C172.765 28.2887 173.227 27.8606 173.617 27.3589C174.015 26.8487 174.322 26.2822 174.538 25.6595H180.998C180.678 26.8271 180.151 27.9903 179.416 29.1492C178.689 30.2995 177.772 31.3416 176.665 32.2757C175.558 33.2097 174.274 33.9578 172.812 34.52C171.351 35.0822 169.725 35.3632 167.935 35.3632C165.487 35.3632 163.377 34.8141 161.604 33.7157C159.839 32.6173 158.564 31.026 157.777 28.9416C156.998 26.8487 156.851 24.3146 157.336 21.3395C157.811 18.4595 158.75 16.0336 160.151 14.0617C161.561 12.0898 163.273 10.5979 165.288 9.58604C167.312 8.57415 169.47 8.0682 171.762 8.0682C173.422 8.0682 174.914 8.29307 176.237 8.7428C177.569 9.18388 178.698 9.83252 179.623 10.6887C180.549 11.5363 181.236 12.5785 181.686 13.8152C182.144 15.052 182.326 16.466 182.231 18.0574ZM183.116 35L187.527 8.43145H206.052L205.17 13.6466H193.066L192.184 19.0952H203.341L202.459 24.3233H191.302L190.42 29.7849H202.524L201.641 35H183.116ZM205.663 35L210.074 8.43145H216.495L214.731 19.0952H225.2L226.965 8.43145H233.373L228.962 35H222.554L224.318 24.3233H213.849L212.085 35H205.663ZM253.475 8.43145H259.883L257.042 25.5687C256.714 27.5492 255.957 29.2746 254.772 30.7449C253.596 32.2065 252.095 33.3395 250.27 34.1438C248.446 34.9395 246.413 35.3373 244.173 35.3373C241.925 35.3373 240.026 34.9395 238.478 34.1438C236.93 33.3395 235.81 32.2065 235.118 30.7449C234.426 29.2746 234.24 27.5492 234.56 25.5687L237.401 8.43145H243.823L241.06 25.0108C240.913 25.9276 240.982 26.7449 241.267 27.4627C241.561 28.1719 242.037 28.7341 242.694 29.1492C243.352 29.5557 244.156 29.7589 245.107 29.7589C246.067 29.7589 246.945 29.5557 247.741 29.1492C248.536 28.7341 249.194 28.1719 249.713 27.4627C250.232 26.7449 250.565 25.9276 250.712 25.0108L253.475 8.43145ZM259.497 35L263.908 8.43145H274.987C276.976 8.43145 278.598 8.71253 279.852 9.27469C281.106 9.83685 281.988 10.6239 282.498 11.6358C283.017 12.6476 283.164 13.8195 282.94 15.1514C282.758 16.1547 282.386 17.0541 281.824 17.8498C281.27 18.6368 280.578 19.2941 279.748 19.8217C278.918 20.3406 278.001 20.7038 276.998 20.9114L276.946 21.1709C278.018 21.2141 278.965 21.4995 279.787 22.0271C280.617 22.5546 281.231 23.2941 281.629 24.2454C282.027 25.1881 282.118 26.2952 281.902 27.5665C281.668 28.9935 281.093 30.2692 280.176 31.3935C279.268 32.5092 278.07 33.3914 276.583 34.04C275.095 34.68 273.374 35 271.42 35H259.497ZM266.801 29.8238H270.771C272.146 29.8238 273.21 29.56 273.962 29.0325C274.723 28.4962 275.173 27.7611 275.311 26.8271C275.424 26.1438 275.363 25.5557 275.13 25.0627C274.896 24.5611 274.507 24.1763 273.962 23.9081C273.417 23.6314 272.73 23.493 271.9 23.493H267.813L266.801 29.8238ZM268.527 19.3546H272.094C272.786 19.3546 273.422 19.2379 274.001 19.0044C274.589 18.7709 275.074 18.4336 275.454 17.9925C275.843 17.5514 276.086 17.0195 276.181 16.3968C276.328 15.506 276.124 14.8055 275.571 14.2952C275.017 13.7849 274.209 13.5298 273.145 13.5298H269.487L268.527 19.3546Z" fill="#FF0000"/>
<path d="M0 42.2648H283.407V44.7556H0V42.2648Z" fill="#FF0000"/>
<path d="M12.2161 8.57671L7.80532 35.1453H1.38372L5.79451 8.57671H12.2161ZM38.8593 8.57671L34.4485 35.1453H28.9998L20.9955 19.8113H20.8139L18.2583 35.1453H11.8367L16.2474 8.57671H21.7739L29.7133 23.8848H29.9339L32.4506 8.57671H38.8593ZM38.4863 35.1453L42.8971 8.57671H61.0332L60.1511 13.7918H48.4365L47.5544 19.2405H58.1143L57.2322 24.4685H46.6722L44.9079 35.1453H38.4863ZM59.8559 35.1453L64.2667 8.57671H70.6883L67.1597 29.9301H78.2126L77.3305 35.1453H59.8559ZM101.139 8.57671H107.548L104.707 25.7139C104.378 27.6945 103.621 29.4199 102.436 30.8901C101.26 32.3518 99.7596 33.4847 97.9347 34.2891C96.1099 35.0847 94.0774 35.4826 91.8375 35.4826C89.5888 35.4826 87.6904 35.0847 86.1423 34.2891C84.5942 33.4847 83.4742 32.3518 82.7823 30.8901C82.0905 29.4199 81.9045 27.6945 82.2245 25.7139L85.0656 8.57671H91.4872L88.7239 25.1561C88.5769 26.0729 88.6461 26.8902 88.9315 27.608C89.2256 28.3172 89.7012 28.8793 90.3585 29.2945C91.0158 29.701 91.8202 29.9042 92.7715 29.9042C93.7315 29.9042 94.6093 29.701 95.405 29.2945C96.2007 28.8793 96.858 28.3172 97.3769 27.608C97.8958 26.8902 98.2288 26.0729 98.3758 25.1561L101.139 8.57671ZM107.162 35.1453L111.573 8.57671H130.098L129.216 13.7918H117.112L116.23 19.2405H127.387L126.504 24.4685H115.348L114.465 29.9301H126.569L125.687 35.1453H107.162ZM156.731 8.57671L152.32 35.1453H146.872L138.868 19.8113H138.686L136.13 35.1453H129.709L134.119 8.57671H139.646L147.585 23.8848H147.806L150.323 8.57671H156.731ZM183.264 18.2026H176.856C176.89 17.528 176.825 16.9269 176.661 16.3994C176.497 15.8632 176.237 15.4048 175.883 15.0243C175.528 14.6351 175.087 14.341 174.559 14.1421C174.032 13.9432 173.418 13.8437 172.717 13.8437C171.377 13.8437 170.161 14.1767 169.072 14.8426C167.982 15.5086 167.07 16.4686 166.334 17.7226C165.599 18.9767 165.085 20.4815 164.791 22.2372C164.523 23.9323 164.527 25.3464 164.804 26.4793C165.089 27.6123 165.617 28.4642 166.386 29.035C167.156 29.5972 168.133 29.8783 169.318 29.8783C170.088 29.8783 170.801 29.7874 171.459 29.6058C172.125 29.4156 172.726 29.1431 173.262 28.7885C173.798 28.4339 174.261 28.0058 174.65 27.5042C175.048 26.9939 175.355 26.4275 175.571 25.8048H182.032C181.712 26.9723 181.184 28.1356 180.449 29.2945C179.723 30.4447 178.806 31.4869 177.699 32.4209C176.592 33.355 175.307 34.1031 173.846 34.6653C172.384 35.2274 170.758 35.5085 168.968 35.5085C166.52 35.5085 164.41 34.9593 162.637 33.8609C160.873 32.7626 159.597 31.1712 158.81 29.0869C158.032 26.9939 157.885 24.4599 158.369 21.4848C158.845 18.6048 159.783 16.1788 161.184 14.207C162.594 12.2351 164.306 10.7432 166.322 9.7313C168.345 8.71941 170.503 8.21347 172.795 8.21347C174.456 8.21347 175.947 8.43833 177.271 8.88806C178.603 9.32914 179.731 9.97778 180.657 10.834C181.582 11.6816 182.27 12.7237 182.719 13.9605C183.178 15.1972 183.359 16.6113 183.264 18.2026ZM184.15 35.1453L188.56 8.57671H207.086L206.204 13.7918H194.1L193.218 19.2405H204.374L203.492 24.4685H192.335L191.453 29.9301H203.557L202.675 35.1453H184.15ZM206.696 35.1453L211.107 8.57671H217.529L215.765 19.2405H226.234L227.998 8.57671H234.407L229.996 35.1453H223.587L225.352 24.4685H214.882L213.118 35.1453H206.696ZM254.508 8.57671H260.917L258.076 25.7139C257.747 27.6945 256.99 29.4199 255.806 30.8901C254.629 32.3518 253.129 33.4847 251.304 34.2891C249.479 35.0847 247.447 35.4826 245.207 35.4826C242.958 35.4826 241.06 35.0847 239.512 34.2891C237.963 33.4847 236.843 32.3518 236.152 30.8901C235.46 29.4199 235.274 27.6945 235.594 25.7139L238.435 8.57671H244.856L242.093 25.1561C241.946 26.0729 242.015 26.8902 242.301 27.608C242.595 28.3172 243.07 28.8793 243.728 29.2945C244.385 29.701 245.189 29.9042 246.141 29.9042C247.101 29.9042 247.979 29.701 248.774 29.2945C249.57 28.8793 250.227 28.3172 250.746 27.608C251.265 26.8902 251.598 26.0729 251.745 25.1561L254.508 8.57671ZM260.531 35.1453L264.942 8.57671H276.021C278.01 8.57671 279.631 8.85779 280.885 9.41995C282.139 9.98211 283.022 10.7691 283.532 11.781C284.051 12.7929 284.198 13.9648 283.973 15.2967C283.791 16.2999 283.419 17.1994 282.857 17.9951C282.304 18.7821 281.612 19.4394 280.782 19.9669C279.951 20.4859 279.035 20.8491 278.031 21.0567L277.979 21.3161C279.052 21.3594 279.999 21.6448 280.821 22.1723C281.651 22.6999 282.265 23.4394 282.663 24.3907C283.061 25.3334 283.151 26.4404 282.935 27.7118C282.702 29.1388 282.127 30.4145 281.21 31.5388C280.302 32.6545 279.104 33.5366 277.616 34.1853C276.129 34.8253 274.408 35.1453 272.453 35.1453H260.531ZM267.835 29.9691H271.804C273.18 29.9691 274.243 29.7053 274.996 29.1777C275.757 28.6415 276.207 27.9064 276.345 26.9723C276.457 26.2891 276.397 25.701 276.163 25.208C275.93 24.7064 275.541 24.3215 274.996 24.0534C274.451 23.7767 273.763 23.6383 272.933 23.6383H268.847L267.835 29.9691ZM269.56 19.4999H273.128C273.82 19.4999 274.455 19.3832 275.035 19.1496C275.623 18.9161 276.107 18.5788 276.488 18.1378C276.877 17.6967 277.119 17.1648 277.214 16.5421C277.361 15.6513 277.158 14.9507 276.604 14.4405C276.051 13.9302 275.242 13.6751 274.178 13.6751H270.52L269.56 19.4999Z" fill="white"/>
<path d="M1.03345 42.4101H284.44V44.9009H1.03345V42.4101Z" fill="white"/>
</svg>
